<?xml version="1.0" encoding="iso-8859-1"?>
<!-- Generator: Adobe Illustrator 16.0.0, SVG Export Plug-In . SVG Version: 6.00 Build 0)  -->
<!DOCTYPE svg PUBLIC "-//W3C//DTD SVG 1.1//EN" "http://www.w3.org/Graphics/SVG/1.1/DTD/svg11.dtd">
<svg version="1.1" id="Capa_1" xmlns="http://www.w3.org/2000/svg" xmlns:xlink="http://www.w3.org/1999/xlink" x="0px" y="0px"
	 width="473.989px" height="473.989px" viewBox="0 0 473.989 473.989" style="enable-background:new 0 0 473.989 473.989;"
	 xml:space="preserve">
<g>
	<g>
		<path d="M236.995,280.944c-22.994,0-42.044-17.152-45.061-39.332c-0.273,2.016-0.428,4.067-0.428,6.155
			c0,25.082,20.406,45.488,45.488,45.488c25.083,0,45.487-20.406,45.487-45.488c0-2.088-0.153-4.141-0.428-6.155
			C279.039,263.792,259.989,280.944,236.995,280.944z"/>
		<path d="M236.995,127.028c-22.994,0-42.044-17.152-45.061-39.332c-0.273,2.016-0.428,4.068-0.428,6.156
			c0,25.082,20.406,45.488,45.488,45.488c25.083,0,45.487-20.406,45.487-45.488c0-2.088-0.153-4.141-0.428-6.156
			C279.039,109.876,259.989,127.028,236.995,127.028z"/>
		<path d="M236.995,434.86c-22.994,0-42.044-17.152-45.061-39.332c-0.273,2.016-0.428,4.067-0.428,6.156
			c0,25.082,20.406,45.487,45.488,45.487c25.083,0,45.487-20.405,45.487-45.487c0-2.089-0.153-4.142-0.428-6.156
			C279.039,417.708,259.989,434.86,236.995,434.86z"/>
		<path d="M399.368,87.628v-33.09h-75.415v-32.99h-14.447v-1.025C309.505,9.189,300.318,0,288.984,0H185.007
			c-11.335,0-20.522,9.189-20.522,20.523v1.025h-14.447v32.99H74.622v33.09c12.904,20.924,49.832,33.551,75.415,40.035v80.791
			H74.622v33.09c12.904,20.925,49.832,33.552,75.415,40.035v80.791H74.622v33.09c12.904,20.924,49.832,33.551,75.415,40.035v38.494
			h173.916v-38.494c25.583-6.484,62.511-19.111,75.415-40.035v-33.09h-75.415v-80.791c25.583-6.483,62.511-19.11,75.415-40.035
			v-33.09h-75.415v-80.791C349.536,121.179,386.463,108.552,399.368,87.628z M236.995,457.432
			c-30.789,0-55.749-24.959-55.749-55.747c0-30.79,24.96-55.749,55.749-55.749s55.749,24.959,55.749,55.749
			C292.744,432.473,267.784,457.432,236.995,457.432z M236.995,303.516c-30.789,0-55.749-24.959-55.749-55.748
			c0-30.789,24.96-55.748,55.749-55.748s55.749,24.959,55.749,55.748C292.744,278.557,267.784,303.516,236.995,303.516z
			 M236.995,150.061c-30.789,0-55.749-24.959-55.749-55.748c0-30.789,24.96-55.748,55.749-55.748s55.749,24.959,55.749,55.748
			C292.744,125.102,267.784,150.061,236.995,150.061z"/>
	</g>
</g>
<g>
</g>
<g>
</g>
<g>
</g>
<g>
</g>
<g>
</g>
<g>
</g>
<g>
</g>
<g>
</g>
<g>
</g>
<g>
</g>
<g>
</g>
<g>
</g>
<g>
</g>
<g>
</g>
<g>
</g>
</svg>
